<svg id="visual" viewBox="0 0 900 600" width="900" height="600" xmlns="http://www.w3.org/2000/svg" xmlns:xlink="http://www.w3.org/1999/xlink" version="1.1"><rect width="900" height="600" fill="#DD2E18"></rect><g><g transform="translate(574 321)"><path d="M62.4 -25.8C70.3 3.9 58.7 34.4 33.7 54.6C8.6 74.7 -29.9 84.5 -55.4 67.9C-80.8 51.4 -93.2 8.5 -81.8 -26C-70.4 -60.6 -35.2 -86.9 -3.9 -85.6C27.3 -84.3 54.6 -55.5 62.4 -25.8Z" fill="#FFAB00"></path></g><g transform="translate(367 130)"><path d="M71.8 -19.1C82 8.2 71.7 46.4 49.6 60.7C27.5 75 -6.5 65.4 -27.4 47.8C-48.3 30.2 -56.2 4.7 -49.4 -17.8C-42.7 -40.3 -21.3 -59.7 4.7 -61.2C30.8 -62.8 61.5 -46.4 71.8 -19.1Z" fill="#FFAB00"></path></g><g transform="translate(67 579)"><path d="M58 -21.5C65.5 4.3 55.3 33.2 36.3 46C17.3 58.9 -10.5 55.8 -31.3 41.1C-52.1 26.4 -66 0.2 -59.6 -24C-53.3 -48.3 -26.6 -70.6 -0.7 -70.3C25.2 -70.1 50.5 -47.4 58 -21.5Z" fill="#FFAB00"></path></g><g transform="translate(836 197)"><path d="M64.6 -22C72.6 3.6 60.3 34.9 38.5 50C16.6 65.2 -14.8 64.4 -35.9 49.1C-57 33.8 -67.9 4.1 -60.2 -21.1C-52.5 -46.2 -26.3 -66.9 1 -67.2C28.3 -67.5 56.6 -47.5 64.6 -22Z" fill="#FFAB00"></path></g><g transform="translate(152 329)"><path d="M48.8 -17.6C55.4 4.6 47.7 29.8 31.1 41.4C14.6 53.1 -10.7 51.3 -25.8 39.5C-40.9 27.6 -45.7 5.6 -39.7 -15.7C-33.7 -37 -16.9 -57.5 2.1 -58.2C21.1 -58.9 42.1 -39.7 48.8 -17.6Z" fill="#FFAB00"></path></g><g transform="translate(866 597)"><path d="M73.5 -26.7C81.2 -0.3 63.6 31.5 38 49.5C12.3 67.4 -21.3 71.6 -43.4 56.3C-65.5 41.1 -76.1 6.5 -66.9 -22C-57.7 -50.4 -28.9 -72.6 2 -73.3C32.9 -73.9 65.9 -53 73.5 -26.7Z" fill="#FFAB00"></path></g><g transform="translate(24 14)"><path d="M63.3 -16C74.4 13.8 70.7 52.9 50.1 67.6C29.5 82.2 -8 72.4 -32.9 52.5C-57.9 32.7 -70.4 2.9 -62.8 -21.9C-55.2 -46.7 -27.6 -66.6 -0.8 -66.3C26.1 -66.1 52.1 -45.7 63.3 -16Z" fill="#FFAB00"></path></g><g transform="translate(433 556)"><path d="M61 -19.7C68.8 4.3 57.9 34.4 36.2 50.3C14.5 66.1 -17.9 67.7 -36.9 53.3C-55.9 38.9 -61.5 8.6 -53.1 -16.1C-44.7 -40.8 -22.4 -59.9 2.1 -60.6C26.6 -61.3 53.2 -43.6 61 -19.7Z" fill="#FFAB00"></path></g><g transform="translate(662 10)"><path d="M56.8 -20.7C62.8 -0.1 49.4 24.7 30.7 37C12 49.4 -11.9 49.4 -27.9 37.9C-43.8 26.4 -51.8 3.5 -45.8 -17.2C-39.9 -37.8 -19.9 -56.2 2.7 -57.1C25.4 -58 50.9 -41.4 56.8 -20.7Z" fill="#FFAB00"></path></g></g></svg>