<svg id="visual" viewBox="0 0 900 450" width="900" height="450" xmlns="http://www.w3.org/2000/svg" xmlns:xlink="http://www.w3.org/1999/xlink" version="1.1"><rect x="0" y="0" width="900" height="450" fill="#000"></rect><path d="M0 27L10 28.2C20 29.3 40 31.7 60 33.7C80 35.7 100 37.3 120 38C140 38.7 160 38.3 180 34.3C200 30.3 220 22.7 240 22C260 21.3 280 27.7 300 25.2C320 22.7 340 11.3 360 6C380 0.7 400 1.3 420 4.3C440 7.3 460 12.7 480 13.7C500 14.7 520 11.3 540 10.5C560 9.7 580 11.3 600 13.5C620 15.7 640 18.3 660 17.5C680 16.7 700 12.3 720 8.8C740 5.3 760 2.7 780 6.3C800 10 820 20 840 24.3C860 28.7 880 27.3 890 26.7L900 26L900 0L890 0C880 0 860 0 840 0C820 0 800 0 780 0C760 0 740 0 720 0C700 0 680 0 660 0C640 0 620 0 600 0C580 0 560 0 540 0C520 0 500 0 480 0C460 0 440 0 420 0C400 0 380 0 360 0C340 0 320 0 300 0C280 0 260 0 240 0C220 0 200 0 180 0C160 0 140 0 120 0C100 0 80 0 60 0C40 0 20 0 10 0L0 0Z" fill="#45EBA5" stroke-linecap="round" stroke-linejoin="miter"></path></svg>