<svg id="visual" viewBox="0 0 900 450" width="900" height="450" xmlns="http://www.w3.org/2000/svg" xmlns:xlink="http://www.w3.org/1999/xlink" version="1.1"><rect x="0" y="0" width="900" height="450" fill="#000"></rect><path d="M0 35L10 31C20 27 40 19 60 19.5C80 20 100 29 120 34.5C140 40 160 42 180 40.5C200 39 220 34 240 29.5C260 25 280 21 300 21.2C320 21.3 340 25.7 360 28.3C380 31 400 32 420 28.2C440 24.3 460 15.7 480 16.7C500 17.7 520 28.3 540 31C560 33.7 580 28.3 600 24.2C620 20 640 17 660 15.8C680 14.7 700 15.3 720 16.8C740 18.3 760 20.7 780 18C800 15.3 820 7.7 840 6C860 4.3 880 8.7 890 10.8L900 13L900 0L890 0C880 0 860 0 840 0C820 0 800 0 780 0C760 0 740 0 720 0C700 0 680 0 660 0C640 0 620 0 600 0C580 0 560 0 540 0C520 0 500 0 480 0C460 0 440 0 420 0C400 0 380 0 360 0C340 0 320 0 300 0C280 0 260 0 240 0C220 0 200 0 180 0C160 0 140 0 120 0C100 0 80 0 60 0C40 0 20 0 10 0L0 0Z" fill="#45EBA5" stroke-linecap="round" stroke-linejoin="miter"></path></svg>