<svg id="visual" viewBox="0 0 900 600" width="900" height="600" xmlns="http://www.w3.org/2000/svg" xmlns:xlink="http://www.w3.org/1999/xlink" version="1.1"><path d="M854 600L854 573L836 545L845 518L845 491L845 464L854 436L854 409L845 382L845 355L854 327L836 300L836 273L836 245L836 218L854 191L854 164L845 136L845 109L836 82L854 55L854 27L836 0L900 0L900 27L900 55L900 82L900 109L900 136L900 164L900 191L900 218L900 245L900 273L900 300L900 327L900 355L900 382L900 409L900 436L900 464L900 491L900 518L900 545L900 573L900 600Z" fill="#dd2e18"></path><path d="M809 600L818 573L800 545L809 518L809 491L800 464L809 436L809 409L809 382L800 355L818 327L791 300L791 273L791 245L791 218L818 191L809 164L809 136L800 109L791 82L809 55L818 27L791 0L837 0L855 27L855 55L837 82L846 109L846 136L855 164L855 191L837 218L837 245L837 273L837 300L855 327L846 355L846 382L855 409L855 436L846 464L846 491L846 518L837 545L855 573L855 600Z" fill="#ea570c"></path><path d="M710 600L719 573L701 545L737 518L728 491L728 464L701 436L719 409L701 382L701 355L737 327L719 300L692 273L701 245L710 218L719 191L710 164L719 136L701 109L719 82L728 55L719 27L710 0L792 0L819 27L810 55L792 82L801 109L810 136L810 164L819 191L792 218L792 245L792 273L792 300L819 327L801 355L810 382L810 409L810 436L801 464L810 491L810 518L801 545L819 573L810 600Z" fill="#f47900"></path><path d="M548 600L530 573L530 545L584 518L548 491L539 464L503 436L530 409L548 382L539 355L566 327L566 300L521 273L485 245L530 218L539 191L521 164L575 136L512 109L557 82L575 55L557 27L521 0L711 0L720 27L729 55L720 82L702 109L720 136L711 164L720 191L711 218L702 245L693 273L720 300L738 327L702 355L702 382L720 409L702 436L729 464L729 491L738 518L702 545L720 573L711 600Z" fill="#fc9800"></path><path d="M494 600L494 573L494 545L548 518L494 491L485 464L467 436L485 409L503 382L485 355L512 327L530 300L467 273L449 245L494 218L494 191L467 164L521 136L476 109L503 82L530 55L503 27L485 0L522 0L558 27L576 55L558 82L513 109L576 136L522 164L540 191L531 218L486 245L522 273L567 300L567 327L540 355L549 382L531 409L504 436L540 464L549 491L585 518L531 545L531 573L549 600Z" fill="#ffab00"></path><path d="M431 600L422 573L431 545L476 518L440 491L431 464L413 436L431 409L449 382L431 355L440 327L458 300L413 273L395 245L422 218L431 191L413 164L449 136L404 109L440 82L467 55L431 27L422 0L486 0L504 27L531 55L504 82L477 109L522 136L468 164L495 191L495 218L450 245L468 273L531 300L513 327L486 355L504 382L486 409L468 436L486 464L495 491L549 518L495 545L495 573L495 600Z" fill="#ffab00"></path><path d="M305 600L332 573L314 545L368 518L305 491L323 464L296 436L296 409L350 382L341 355L350 327L341 300L287 273L287 245L323 218L305 191L287 164L350 136L287 109L314 82L341 55L341 27L323 0L423 0L432 27L468 55L441 82L405 109L450 136L414 164L432 191L423 218L396 245L414 273L459 300L441 327L432 355L450 382L432 409L414 436L432 464L441 491L477 518L432 545L423 573L432 600Z" fill="#fc9800"></path><path d="M233 600L251 573L233 545L296 518L233 491L242 464L206 436L224 409L287 382L260 355L269 327L278 300L206 273L215 245L260 218L215 191L206 164L269 136L215 109L251 82L260 55L278 27L242 0L324 0L342 27L342 55L315 82L288 109L351 136L288 164L306 191L324 218L288 245L288 273L342 300L351 327L342 355L351 382L297 409L297 436L324 464L306 491L369 518L315 545L333 573L306 600Z" fill="#f47900"></path><path d="M179 600L206 573L179 545L242 518L188 491L197 464L161 436L170 409L233 382L215 355L224 327L224 300L161 273L170 245L206 218L170 191L152 164L215 136L170 109L206 82L206 55L224 27L197 0L243 0L279 27L261 55L252 82L216 109L270 136L207 164L216 191L261 218L216 245L207 273L279 300L270 327L261 355L288 382L225 409L207 436L243 464L234 491L297 518L234 545L252 573L234 600Z" fill="#ea570c"></path><path d="M0 600L0 573L0 545L0 518L0 491L0 464L0 436L0 409L0 382L0 355L0 327L0 300L0 273L0 245L0 218L0 191L0 164L0 136L0 109L0 82L0 55L0 27L0 0L198 0L225 27L207 55L207 82L171 109L216 136L153 164L171 191L207 218L171 245L162 273L225 300L225 327L216 355L234 382L171 409L162 436L198 464L189 491L243 518L180 545L207 573L180 600Z" fill="#dd2e18"></path></svg>