<svg id="visual" viewBox="0 0 900 600" width="900" height="600" xmlns="http://www.w3.org/2000/svg" xmlns:xlink="http://www.w3.org/1999/xlink" version="1.1"><path d="M0 43L56 31L113 31L169 25L225 43L281 25L338 31L394 31L450 43L506 43L563 31L619 43L675 31L731 25L788 43L844 43L900 37L900 0L844 0L788 0L731 0L675 0L619 0L563 0L506 0L450 0L394 0L338 0L281 0L225 0L169 0L113 0L56 0L0 0Z" fill="#dd2e18"></path><path d="M0 91L56 79L113 91L169 79L225 79L281 73L338 85L394 73L450 97L506 103L563 91L619 97L675 85L731 79L788 91L844 103L900 79L900 35L844 41L788 41L731 23L675 29L619 41L563 29L506 41L450 41L394 29L338 29L281 23L225 41L169 23L113 29L56 29L0 41Z" fill="#ea570c"></path><path d="M0 151L56 121L113 163L169 157L225 133L281 127L338 139L394 121L450 169L506 145L563 139L619 163L675 139L731 145L788 157L844 145L900 157L900 77L844 101L788 89L731 77L675 83L619 95L563 89L506 101L450 95L394 71L338 83L281 71L225 77L169 77L113 89L56 77L0 89Z" fill="#f47900"></path><path d="M0 181L56 169L113 211L169 193L225 163L281 157L338 169L394 163L450 205L506 175L563 187L619 193L675 169L731 175L788 211L844 181L900 187L900 155L844 143L788 155L731 143L675 137L619 161L563 137L506 143L450 167L394 119L338 137L281 125L225 131L169 155L113 161L56 119L0 149Z" fill="#fc9800"></path><path d="M0 235L56 235L113 289L169 277L225 253L281 253L338 241L394 265L450 283L506 235L563 277L619 259L675 223L731 247L788 265L844 259L900 265L900 185L844 179L788 209L731 173L675 167L619 191L563 185L506 173L450 203L394 161L338 167L281 155L225 161L169 191L113 209L56 167L0 179Z" fill="#ffab00"></path><path d="M0 373L56 349L113 403L169 355L225 391L281 391L338 361L394 403L450 391L506 379L563 361L619 355L675 367L731 343L788 355L844 391L900 355L900 263L844 257L788 263L731 245L675 221L619 257L563 275L506 233L450 281L394 263L338 239L281 251L225 251L169 275L113 287L56 233L0 233Z" fill="#ffab00"></path><path d="M0 397L56 385L113 433L169 379L225 421L281 421L338 385L394 427L450 415L506 415L563 391L619 385L675 397L731 367L788 385L844 427L900 385L900 353L844 389L788 353L731 341L675 365L619 353L563 359L506 377L450 389L394 401L338 359L281 389L225 389L169 353L113 401L56 347L0 371Z" fill="#fc9800"></path><path d="M0 439L56 427L113 469L169 409L225 445L281 463L338 415L394 463L450 445L506 457L563 439L619 427L675 439L731 415L788 409L844 463L900 421L900 383L844 425L788 383L731 365L675 395L619 383L563 389L506 413L450 413L394 425L338 383L281 419L225 419L169 377L113 431L56 383L0 395Z" fill="#f47900"></path><path d="M0 469L56 463L113 487L169 445L225 469L281 487L338 439L394 487L450 475L506 475L563 475L619 445L675 475L731 439L788 445L844 499L900 451L900 419L844 461L788 407L731 413L675 437L619 425L563 437L506 455L450 443L394 461L338 413L281 461L225 443L169 407L113 467L56 425L0 437Z" fill="#ea570c"></path><path d="M0 601L56 601L113 601L169 601L225 601L281 601L338 601L394 601L450 601L506 601L563 601L619 601L675 601L731 601L788 601L844 601L900 601L900 449L844 497L788 443L731 437L675 473L619 443L563 473L506 473L450 473L394 485L338 437L281 485L225 467L169 443L113 485L56 461L0 467Z" fill="#dd2e18"></path></svg>