<svg id="visual" viewBox="0 0 900 600" width="900" height="600" xmlns="http://www.w3.org/2000/svg" xmlns:xlink="http://www.w3.org/1999/xlink" version="1.1"><path d="M0 31L56 25L113 31L169 25L225 31L281 31L338 37L394 43L450 43L506 37L563 31L619 31L675 25L731 25L788 43L844 25L900 31L900 0L844 0L788 0L731 0L675 0L619 0L563 0L506 0L450 0L394 0L338 0L281 0L225 0L169 0L113 0L56 0L0 0Z" fill="#ffab00"></path><path d="M0 55L56 49L113 55L169 61L225 55L281 61L338 67L394 79L450 67L506 61L563 67L619 67L675 49L731 55L788 79L844 49L900 55L900 29L844 23L788 41L731 23L675 23L619 29L563 29L506 35L450 41L394 41L338 35L281 29L225 29L169 23L113 29L56 23L0 29Z" fill="#f98c00"></path><path d="M0 133L56 133L113 115L169 151L225 139L281 139L338 127L394 139L450 169L506 127L563 133L619 157L675 109L731 151L788 169L844 133L900 127L900 53L844 47L788 77L731 53L675 47L619 65L563 65L506 59L450 65L394 77L338 65L281 59L225 53L169 59L113 53L56 47L0 53Z" fill="#f06b03"></path><path d="M0 277L56 247L113 217L169 301L225 283L281 253L338 265L394 247L450 301L506 289L563 295L619 295L675 247L731 301L788 313L844 265L900 223L900 125L844 131L788 167L731 149L675 107L619 155L563 131L506 125L450 167L394 137L338 125L281 137L225 137L169 149L113 113L56 131L0 131Z" fill="#e54811"></path><path d="M0 385L56 367L113 379L169 385L225 379L281 373L338 367L394 385L450 403L506 391L563 391L619 397L675 373L731 373L788 403L844 367L900 373L900 221L844 263L788 311L731 299L675 245L619 293L563 293L506 287L450 299L394 245L338 263L281 251L225 281L169 299L113 215L56 245L0 275Z" fill="#dd2e18"></path><path d="M0 451L56 421L113 445L169 457L225 451L281 451L338 439L394 433L450 463L506 445L563 451L619 445L675 433L731 415L788 451L844 427L900 439L900 371L844 365L788 401L731 371L675 371L619 395L563 389L506 389L450 401L394 383L338 365L281 371L225 377L169 383L113 377L56 365L0 383Z" fill="#dd2e18"></path><path d="M0 493L56 481L113 487L169 505L225 487L281 499L338 481L394 487L450 499L506 493L563 499L619 493L675 487L731 475L788 493L844 493L900 487L900 437L844 425L788 449L731 413L675 431L619 443L563 449L506 443L450 461L394 431L338 437L281 449L225 449L169 455L113 443L56 419L0 449Z" fill="#e54811"></path><path d="M0 517L56 511L113 505L169 529L225 511L281 523L338 517L394 517L450 517L506 529L563 529L619 523L675 517L731 505L788 511L844 517L900 523L900 485L844 491L788 491L731 473L675 485L619 491L563 497L506 491L450 497L394 485L338 479L281 497L225 485L169 503L113 485L56 479L0 491Z" fill="#f06b03"></path><path d="M0 571L56 553L113 559L169 571L225 553L281 553L338 565L394 565L450 559L506 577L563 571L619 553L675 559L731 553L788 553L844 553L900 559L900 521L844 515L788 509L731 503L675 515L619 521L563 527L506 527L450 515L394 515L338 515L281 521L225 509L169 527L113 503L56 509L0 515Z" fill="#f98c00"></path><path d="M0 601L56 601L113 601L169 601L225 601L281 601L338 601L394 601L450 601L506 601L563 601L619 601L675 601L731 601L788 601L844 601L900 601L900 557L844 551L788 551L731 551L675 557L619 551L563 569L506 575L450 557L394 563L338 563L281 551L225 551L169 569L113 557L56 551L0 569Z" fill="#ffab00"></path></svg>