<svg id="visual" viewBox="0 0 900 600" width="900" height="600" xmlns="http://www.w3.org/2000/svg" xmlns:xlink="http://www.w3.org/1999/xlink" version="1.1"><path d="M0 43L82 49L164 55L245 97L327 91L409 103L491 55L573 49L655 49L736 103L818 109L900 85L900 0L818 0L736 0L655 0L573 0L491 0L409 0L327 0L245 0L164 0L82 0L0 0Z" fill="#00cc8e"></path><path d="M0 97L82 121L164 97L245 133L327 145L409 175L491 115L573 103L655 121L736 193L818 145L900 157L900 83L818 107L736 101L655 47L573 47L491 53L409 101L327 89L245 95L164 53L82 47L0 41Z" fill="#00b98a"></path><path d="M0 271L82 265L164 247L245 271L327 289L409 241L491 187L573 253L655 199L736 301L818 199L900 217L900 155L818 143L736 191L655 119L573 101L491 113L409 173L327 143L245 131L164 95L82 119L0 95Z" fill="#00a784"></path><path d="M0 361L82 493L164 373L245 421L327 451L409 343L491 319L573 439L655 403L736 517L818 457L900 415L900 215L818 197L736 299L655 197L573 251L491 185L409 239L327 287L245 269L164 245L82 263L0 269Z" fill="#00957c"></path><path d="M0 601L82 601L164 601L245 601L327 601L409 601L491 601L573 601L655 601L736 601L818 601L900 601L900 413L818 455L736 515L655 401L573 437L491 317L409 341L327 449L245 419L164 371L82 491L0 359Z" fill="#038373"></path></svg>