<svg id="visual" viewBox="0 0 900 600" width="900" height="600" xmlns="http://www.w3.org/2000/svg" xmlns:xlink="http://www.w3.org/1999/xlink" version="1.1"><path d="M0 61L82 61L82 91L164 91L164 67L245 67L245 97L327 97L327 55L409 55L409 127L491 127L491 61L573 61L573 97L655 97L655 91L736 91L736 91L818 91L818 115L900 115L900 55L900 0L900 0L818 0L818 0L736 0L736 0L655 0L655 0L573 0L573 0L491 0L491 0L409 0L409 0L327 0L327 0L245 0L245 0L164 0L164 0L82 0L82 0L0 0Z" fill="#ffab00"></path><path d="M0 181L82 181L82 217L164 217L164 283L245 283L245 211L327 211L327 151L409 151L409 313L491 313L491 259L573 259L573 181L655 181L655 289L736 289L736 199L818 199L818 313L900 313L900 361L900 53L900 113L818 113L818 89L736 89L736 89L655 89L655 95L573 95L573 59L491 59L491 125L409 125L409 53L327 53L327 95L245 95L245 65L164 65L164 89L82 89L82 59L0 59Z" fill="#fd822b"></path><path d="M0 433L82 433L82 445L164 445L164 373L245 373L245 427L327 427L327 391L409 391L409 409L491 409L491 445L573 445L573 391L655 391L655 457L736 457L736 373L818 373L818 481L900 481L900 463L900 359L900 311L818 311L818 197L736 197L736 287L655 287L655 179L573 179L573 257L491 257L491 311L409 311L409 149L327 149L327 209L245 209L245 281L164 281L164 215L82 215L82 179L0 179Z" fill="#ef5b42"></path><path d="M0 565L82 565L82 517L164 517L164 547L245 547L245 523L327 523L327 529L409 529L409 559L491 559L491 499L573 499L573 547L655 547L655 505L736 505L736 523L818 523L818 559L900 559L900 547L900 461L900 479L818 479L818 371L736 371L736 455L655 455L655 389L573 389L573 443L491 443L491 407L409 407L409 389L327 389L327 425L245 425L245 371L164 371L164 443L82 443L82 431L0 431Z" fill="#d43a54"></path><path d="M0 601L82 601L82 601L164 601L164 601L245 601L245 601L327 601L327 601L409 601L409 601L491 601L491 601L573 601L573 601L655 601L655 601L736 601L736 601L818 601L818 601L900 601L900 601L900 545L900 557L818 557L818 521L736 521L736 503L655 503L655 545L573 545L573 497L491 497L491 557L409 557L409 527L327 527L327 521L245 521L245 545L164 545L164 515L82 515L82 563L0 563Z" fill="#b0235f"></path></svg>