<svg id="visual" viewBox="0 0 900 600" width="900" height="600" xmlns="http://www.w3.org/2000/svg" xmlns:xlink="http://www.w3.org/1999/xlink" version="1.1"><rect x="0" y="0" width="900" height="600" fill="#DD2E18"></rect><path d="M0 582L50 582L50 560L100 560L100 572L150 572L150 560L200 560L200 574L250 574L250 568L300 568L300 568L350 568L350 579L400 579L400 566L450 566L450 565L500 565L500 559L550 559L550 577L600 577L600 576L650 576L650 569L700 569L700 581L750 581L750 558L800 558L800 573L850 573L850 558L900 558L900 563L900 601L900 601L850 601L850 601L800 601L800 601L750 601L750 601L700 601L700 601L650 601L650 601L600 601L600 601L550 601L550 601L500 601L500 601L450 601L450 601L400 601L400 601L350 601L350 601L300 601L300 601L250 601L250 601L200 601L200 601L150 601L150 601L100 601L100 601L50 601L50 601L0 601Z" fill="#000" stroke-linecap="square" stroke-linejoin="miter"></path></svg>